<mxfile host="app.diagrams.net" agent="Mozilla/5.0 (Macintosh; Intel Mac OS X 10_15_7) AppleWebKit/537.36 (KHTML, like Gecko) Chrome/139.0.0.0 Safari/537.36" version="28.1.1">
  <diagram name="Page-1" id="OM_sHuSEF1frfqFUFy3i">
    <mxGraphModel dx="2358" dy="3363" grid="1" gridSize="10" guides="1" tooltips="1" connect="1" arrows="1" fold="1" page="1" pageScale="1" pageWidth="850" pageHeight="1100" math="0" shadow="0">
      <root>
        <mxCell id="0" />
        <mxCell id="1" parent="0" />
        <mxCell id="tz2Queb-3kquGu2dCrOk-1" value="ECU Raspberry Pi 4" style="whiteSpace=wrap;strokeWidth=2;fontSize=16;fontStyle=1" parent="1" vertex="1">
          <mxGeometry x="300" y="-40" width="640" height="320" as="geometry" />
        </mxCell>
        <mxCell id="tz2Queb-3kquGu2dCrOk-2" value="ECU Jetson Nano" style="whiteSpace=wrap;strokeWidth=2;fontSize=16;fontStyle=1" parent="1" vertex="1">
          <mxGeometry x="260" y="530" width="1135" height="612" as="geometry" />
        </mxCell>
        <mxCell id="tz2Queb-3kquGu2dCrOk-3" value="CAN Bus" style="strokeWidth=2;shape=process;whiteSpace=wrap;size=0.04;fontSize=14;" parent="1" vertex="1">
          <mxGeometry x="1000" y="320" width="89" height="39" as="geometry" />
        </mxCell>
        <mxCell id="tz2Queb-3kquGu2dCrOk-4" value="Zenoh Space" style="shape=cylinder3;boundedLbl=1;backgroundOutline=1;size=10;strokeWidth=2;whiteSpace=wrap;fillColor=#fff2cc;strokeColor=#d6b656;fontSize=14;" parent="1" vertex="1">
          <mxGeometry x="1100" y="560" width="105" height="73" as="geometry" />
        </mxCell>
        <mxCell id="tz2Queb-3kquGu2dCrOk-5" value="Cloud InfluxDB" style="shape=cylinder3;boundedLbl=1;backgroundOutline=1;size=10;strokeWidth=2;whiteSpace=wrap;fillColor=#e1d5e7;strokeColor=#9673a6;fontSize=14;" parent="1" vertex="1">
          <mxGeometry x="1487" y="792" width="120" height="76" as="geometry" />
        </mxCell>
        <mxCell id="tz2Queb-3kquGu2dCrOk-6" value="Arduino speed sensor" style="whiteSpace=wrap;strokeWidth=2;fontSize=16;fontStyle=1" parent="1" vertex="1">
          <mxGeometry x="1370" y="330" width="260" height="78" as="geometry" />
        </mxCell>
        <mxCell id="tz2Queb-3kquGu2dCrOk-7" value="Camera" style="whiteSpace=wrap;strokeWidth=2;fillColor=#d5e8d4;strokeColor=#82b366;fontSize=14;" parent="1" vertex="1">
          <mxGeometry x="80" y="803" width="115" height="54" as="geometry" />
        </mxCell>
        <mxCell id="tz2Queb-3kquGu2dCrOk-8" value="Gamepad" style="whiteSpace=wrap;strokeWidth=2;fillColor=#d5e8d4;strokeColor=#82b366;fontSize=14;" parent="1" vertex="1">
          <mxGeometry x="90" y="970" width="127" height="54" as="geometry" />
        </mxCell>
        <mxCell id="tz2Queb-3kquGu2dCrOk-9" value="Instrument Cluster LCD" style="whiteSpace=wrap;strokeWidth=2;fillColor=#dae8fc;strokeColor=#6c8ebf;fontSize=14;" parent="1" vertex="1">
          <mxGeometry x="360" y="370" width="226" height="54" as="geometry" />
        </mxCell>
        <mxCell id="tz2Queb-3kquGu2dCrOk-10" value="Detection" style="whiteSpace=wrap;strokeWidth=2;fillColor=#ffe6cc;strokeColor=#d79b00;fontSize=14;" parent="1" vertex="1">
          <mxGeometry x="482" y="709" width="130" height="54" as="geometry" />
        </mxCell>
        <mxCell id="tz2Queb-3kquGu2dCrOk-11" value="Combined Controller" style="whiteSpace=wrap;strokeWidth=2;fillColor=#ffe6cc;strokeColor=#d79b00;fontSize=14;" parent="1" vertex="1">
          <mxGeometry x="544" y="940" width="209" height="54" as="geometry" />
        </mxCell>
        <mxCell id="tz2Queb-3kquGu2dCrOk-12" value="Vehicle System" style="whiteSpace=wrap;strokeWidth=2;fillColor=#ffe6cc;strokeColor=#d79b00;fontSize=14;" parent="1" vertex="1">
          <mxGeometry x="500" y="820" width="167" height="54" as="geometry" />
        </mxCell>
        <mxCell id="tz2Queb-3kquGu2dCrOk-13" value="Middleware" style="whiteSpace=wrap;strokeWidth=2;fillColor=#ffe6cc;strokeColor=#d79b00;fontSize=14;" parent="1" vertex="1">
          <mxGeometry x="440" y="600" width="142" height="54" as="geometry" />
        </mxCell>
        <mxCell id="tz2Queb-3kquGu2dCrOk-14" value="Battery Sensor I2C" style="whiteSpace=wrap;strokeWidth=2;fillColor=#d5e8d4;strokeColor=#82b366;fontSize=14;" parent="1" vertex="1">
          <mxGeometry x="20" y="600" width="191" height="54" as="geometry" />
        </mxCell>
        <mxCell id="tz2Queb-3kquGu2dCrOk-15" value="Monitoring" style="whiteSpace=wrap;strokeWidth=2;fillColor=#ffe6cc;strokeColor=#d79b00;fontSize=14;" parent="1" vertex="1">
          <mxGeometry x="617" y="1046" width="136" height="54" as="geometry" />
        </mxCell>
        <mxCell id="tz2Queb-3kquGu2dCrOk-16" value="zenoh-router" style="whiteSpace=wrap;strokeWidth=2;fillColor=#ffe6cc;strokeColor=#d79b00;fontSize=14;" parent="1" vertex="1">
          <mxGeometry x="1217" y="803" width="153" height="54" as="geometry" />
        </mxCell>
        <mxCell id="tz2Queb-3kquGu2dCrOk-17" value="Middleware" style="whiteSpace=wrap;strokeWidth=2;fillColor=#ffe6cc;strokeColor=#d79b00;fontSize=14;" parent="1" vertex="1">
          <mxGeometry x="365" y="12" width="142" height="54" as="geometry" />
        </mxCell>
        <mxCell id="tz2Queb-3kquGu2dCrOk-18" value="InstrumentClusterApp" style="whiteSpace=wrap;strokeWidth=2;fillColor=#ffe6cc;strokeColor=#d79b00;fontSize=14;" parent="1" vertex="1">
          <mxGeometry x="360" y="160" width="216" height="54" as="geometry" />
        </mxCell>
        <mxCell id="tz2Queb-3kquGu2dCrOk-19" value="CAN" style="curved=1;startArrow=none;endArrow=block;exitX=0;exitY=0.5;rounded=0;exitDx=0;exitDy=0;entryX=1;entryY=0.5;entryDx=0;entryDy=0;" parent="1" source="tz2Queb-3kquGu2dCrOk-6" target="tz2Queb-3kquGu2dCrOk-3" edge="1">
          <mxGeometry relative="1" as="geometry">
            <Array as="points" />
            <mxPoint x="1070" y="354" as="targetPoint" />
          </mxGeometry>
        </mxCell>
        <mxCell id="tz2Queb-3kquGu2dCrOk-20" value="CAN" style="curved=1;startArrow=none;endArrow=block;exitX=1;exitY=0.15;entryX=0.3;entryY=1;rounded=0;strokeColor=default;align=center;verticalAlign=middle;fontFamily=Helvetica;fontSize=13;fontColor=default;labelBackgroundColor=default;" parent="1" source="tz2Queb-3kquGu2dCrOk-13" target="tz2Queb-3kquGu2dCrOk-3" edge="1">
          <mxGeometry x="-0.4352" relative="1" as="geometry">
            <Array as="points">
              <mxPoint x="670" y="580" />
              <mxPoint x="790" y="520" />
            </Array>
            <mxPoint as="offset" />
          </mxGeometry>
        </mxCell>
        <mxCell id="tz2Queb-3kquGu2dCrOk-22" value="CAN" style="curved=1;startArrow=none;endArrow=block;exitX=1;exitY=0.75;entryX=0.327;entryY=-0.009;rounded=0;entryDx=0;entryDy=0;entryPerimeter=0;strokeColor=default;align=center;verticalAlign=middle;fontFamily=Helvetica;fontSize=13;fontColor=default;labelBackgroundColor=default;exitDx=0;exitDy=0;" parent="1" source="tz2Queb-3kquGu2dCrOk-17" target="tz2Queb-3kquGu2dCrOk-3" edge="1">
          <mxGeometry x="0.0757" relative="1" as="geometry">
            <Array as="points">
              <mxPoint x="800" y="130" />
              <mxPoint x="900" y="180" />
            </Array>
            <mxPoint as="offset" />
          </mxGeometry>
        </mxCell>
        <mxCell id="tz2Queb-3kquGu2dCrOk-23" value="frames" style="curved=1;startArrow=none;endArrow=block;exitX=1;exitY=0.5;entryX=0;entryY=0.5;rounded=0;fontSize=13;strokeColor=default;align=center;verticalAlign=middle;fontFamily=Helvetica;fontColor=default;labelBackgroundColor=default;exitDx=0;exitDy=0;" parent="1" source="tz2Queb-3kquGu2dCrOk-7" target="tz2Queb-3kquGu2dCrOk-10" edge="1">
          <mxGeometry x="-0.1547" y="-9" relative="1" as="geometry">
            <Array as="points">
              <mxPoint x="314" y="770" />
            </Array>
            <mxPoint as="offset" />
          </mxGeometry>
        </mxCell>
        <mxCell id="tz2Queb-3kquGu2dCrOk-24" value="manual inputs" style="curved=1;startArrow=none;endArrow=block;exitX=1;exitY=0.5;entryX=0;entryY=0.5;rounded=0;strokeColor=default;align=center;verticalAlign=middle;fontFamily=Helvetica;fontSize=13;fontColor=default;labelBackgroundColor=default;exitDx=0;exitDy=0;" parent="1" source="tz2Queb-3kquGu2dCrOk-8" target="tz2Queb-3kquGu2dCrOk-11" edge="1">
          <mxGeometry x="-0.0218" y="-8" relative="1" as="geometry">
            <Array as="points">
              <mxPoint x="320" y="970" />
            </Array>
            <mxPoint x="1" as="offset" />
          </mxGeometry>
        </mxCell>
        <mxCell id="tz2Queb-3kquGu2dCrOk-25" value="data" style="curved=1;startArrow=none;endArrow=block;exitX=1;exitY=0.51;entryX=0;entryY=0.51;rounded=0;fontSize=13;strokeColor=default;align=center;verticalAlign=middle;fontFamily=Helvetica;fontColor=default;labelBackgroundColor=default;" parent="1" source="tz2Queb-3kquGu2dCrOk-14" target="tz2Queb-3kquGu2dCrOk-13" edge="1">
          <mxGeometry relative="1" as="geometry">
            <Array as="points" />
          </mxGeometry>
        </mxCell>
        <mxCell id="tz2Queb-3kquGu2dCrOk-26" value="publish perception" style="curved=1;startArrow=none;endArrow=block;exitX=1;exitY=0.75;rounded=0;exitDx=0;exitDy=0;entryX=0.145;entryY=1;entryDx=0;entryDy=-2.9;entryPerimeter=0;strokeColor=default;align=center;verticalAlign=middle;fontFamily=Helvetica;fontSize=13;fontColor=default;labelBackgroundColor=default;" parent="1" source="tz2Queb-3kquGu2dCrOk-10" target="tz2Queb-3kquGu2dCrOk-4" edge="1">
          <mxGeometry x="-0.1395" y="19" relative="1" as="geometry">
            <Array as="points">
              <mxPoint x="830" y="740" />
            </Array>
            <mxPoint x="990" y="495" as="targetPoint" />
            <mxPoint as="offset" />
          </mxGeometry>
        </mxCell>
        <mxCell id="tz2Queb-3kquGu2dCrOk-27" value="publish metrics" style="curved=1;startArrow=none;endArrow=block;exitX=0.99;exitY=0.5;entryX=0.566;entryY=0.991;rounded=0;entryDx=0;entryDy=0;entryPerimeter=0;strokeColor=default;align=center;verticalAlign=middle;fontFamily=Helvetica;fontSize=13;fontColor=default;labelBackgroundColor=default;" parent="1" source="tz2Queb-3kquGu2dCrOk-15" target="tz2Queb-3kquGu2dCrOk-4" edge="1">
          <mxGeometry x="-0.1894" y="18" relative="1" as="geometry">
            <Array as="points">
              <mxPoint x="860" y="1050" />
              <mxPoint x="1120" y="990" />
            </Array>
            <mxPoint as="offset" />
          </mxGeometry>
        </mxCell>
        <mxCell id="tz2Queb-3kquGu2dCrOk-28" value="publish speed &amp; battery" style="curved=1;startArrow=none;endArrow=block;exitX=1;exitY=0.51;rounded=0;entryX=0;entryY=0.5;entryDx=0;entryDy=0;entryPerimeter=0;strokeColor=default;align=center;verticalAlign=middle;fontFamily=Helvetica;fontSize=13;fontColor=default;labelBackgroundColor=default;" parent="1" source="tz2Queb-3kquGu2dCrOk-13" target="tz2Queb-3kquGu2dCrOk-4" edge="1">
          <mxGeometry x="-0.0418" relative="1" as="geometry">
            <Array as="points">
              <mxPoint x="830" y="610" />
            </Array>
            <mxPoint x="970" y="490" as="targetPoint" />
            <mxPoint as="offset" />
          </mxGeometry>
        </mxCell>
        <mxCell id="tz2Queb-3kquGu2dCrOk-29" value="subscribe autonomous level" style="curved=1;startArrow=block;endArrow=none;exitX=1;exitY=0.25;rounded=0;exitDx=0;exitDy=0;strokeColor=default;align=center;verticalAlign=middle;fontFamily=Helvetica;fontSize=13;fontColor=default;labelBackgroundColor=default;entryX=0;entryY=0;entryDx=0;entryDy=49.75;entryPerimeter=0;startFill=1;endFill=0;" parent="1" source="tz2Queb-3kquGu2dCrOk-10" edge="1" target="tz2Queb-3kquGu2dCrOk-4">
          <mxGeometry x="-0.0157" y="-7" relative="1" as="geometry">
            <Array as="points">
              <mxPoint x="810" y="660" />
            </Array>
            <mxPoint x="980" y="490" as="targetPoint" />
            <mxPoint as="offset" />
          </mxGeometry>
        </mxCell>
        <mxCell id="tz2Queb-3kquGu2dCrOk-30" value="subscribe perception" style="curved=1;startArrow=block;endArrow=none;exitX=1;exitY=0.06;rounded=0;entryX=0.395;entryY=0.973;entryDx=0;entryDy=0;entryPerimeter=0;strokeColor=default;align=center;verticalAlign=middle;fontFamily=Helvetica;fontSize=13;fontColor=default;labelBackgroundColor=default;startFill=1;endFill=0;" parent="1" source="tz2Queb-3kquGu2dCrOk-11" target="tz2Queb-3kquGu2dCrOk-4" edge="1">
          <mxGeometry x="-0.0432" y="5" relative="1" as="geometry">
            <Array as="points">
              <mxPoint x="830" y="920" />
              <mxPoint x="930" y="860" />
              <mxPoint x="1010" y="790" />
            </Array>
            <mxPoint x="1010" y="500" as="targetPoint" />
            <mxPoint as="offset" />
          </mxGeometry>
        </mxCell>
        <mxCell id="tz2Queb-3kquGu2dCrOk-31" value="publish control" style="curved=1;startArrow=none;endArrow=block;exitX=1;exitY=0.83;rounded=0;entryX=0.446;entryY=0.983;entryDx=0;entryDy=0;entryPerimeter=0;strokeColor=default;align=center;verticalAlign=middle;fontFamily=Helvetica;fontSize=13;fontColor=default;labelBackgroundColor=default;" parent="1" source="tz2Queb-3kquGu2dCrOk-11" target="tz2Queb-3kquGu2dCrOk-4" edge="1">
          <mxGeometry x="-0.0316" y="7" relative="1" as="geometry">
            <Array as="points">
              <mxPoint x="900" y="950" />
              <mxPoint x="1060" y="880" />
            </Array>
            <mxPoint x="1020" y="500" as="targetPoint" />
            <mxPoint as="offset" />
          </mxGeometry>
        </mxCell>
        <mxCell id="tz2Queb-3kquGu2dCrOk-32" value="subscribe control" style="curved=1;startArrow=block;endArrow=none;exitX=1;exitY=0.25;rounded=0;exitDx=0;exitDy=0;entryX=0.255;entryY=0.983;entryDx=0;entryDy=0;entryPerimeter=0;strokeColor=default;align=center;verticalAlign=middle;fontFamily=Helvetica;fontSize=13;fontColor=default;labelBackgroundColor=default;startFill=1;endFill=0;" parent="1" source="tz2Queb-3kquGu2dCrOk-12" target="tz2Queb-3kquGu2dCrOk-4" edge="1">
          <mxGeometry x="-0.0045" y="30" relative="1" as="geometry">
            <Array as="points">
              <mxPoint x="910" y="790" />
            </Array>
            <mxPoint x="1000" y="500" as="targetPoint" />
            <mxPoint as="offset" />
          </mxGeometry>
        </mxCell>
        <mxCell id="tz2Queb-3kquGu2dCrOk-33" value="publish CAN data" style="curved=1;startArrow=none;endArrow=block;exitX=1;exitY=0.25;entryX=0;entryY=0;rounded=0;entryDx=0;entryDy=23.25;entryPerimeter=0;strokeColor=default;align=center;verticalAlign=middle;fontFamily=Helvetica;fontSize=13;fontColor=default;labelBackgroundColor=default;exitDx=0;exitDy=0;" parent="1" source="tz2Queb-3kquGu2dCrOk-17" target="uv80TspqGvo0qjS1nxk1-1" edge="1">
          <mxGeometry x="-0.0264" y="2" relative="1" as="geometry">
            <Array as="points">
              <mxPoint x="640" y="10" />
            </Array>
            <mxPoint x="1" as="offset" />
          </mxGeometry>
        </mxCell>
        <mxCell id="tz2Queb-3kquGu2dCrOk-34" value="subscribe control" style="curved=1;startArrow=block;endArrow=none;exitX=1;exitY=0.5;rounded=0;strokeColor=default;align=center;verticalAlign=middle;fontFamily=Helvetica;fontSize=13;fontColor=default;labelBackgroundColor=default;entryX=0;entryY=0.5;entryDx=0;entryDy=0;entryPerimeter=0;exitDx=0;exitDy=0;startFill=1;endFill=0;" parent="1" source="tz2Queb-3kquGu2dCrOk-17" edge="1" target="uv80TspqGvo0qjS1nxk1-1">
          <mxGeometry x="-0.0352" y="5" relative="1" as="geometry">
            <Array as="points">
              <mxPoint x="680" y="60" />
            </Array>
            <mxPoint x="980" y="430" as="targetPoint" />
            <mxPoint as="offset" />
          </mxGeometry>
        </mxCell>
        <mxCell id="tz2Queb-3kquGu2dCrOk-35" value="subscribe vehicle perception" style="curved=1;startArrow=block;endArrow=none;entryX=0;entryY=1;rounded=0;entryDx=0;entryDy=-10;entryPerimeter=0;strokeColor=default;align=center;verticalAlign=middle;fontFamily=Helvetica;fontSize=13;fontColor=default;labelBackgroundColor=default;exitX=1;exitY=0.25;exitDx=0;exitDy=0;endFill=0;startFill=1;" parent="1" source="tz2Queb-3kquGu2dCrOk-18" target="uv80TspqGvo0qjS1nxk1-1" edge="1">
          <mxGeometry x="-0.2279" y="16" relative="1" as="geometry">
            <Array as="points">
              <mxPoint x="770" y="180" />
            </Array>
            <mxPoint x="1" as="offset" />
            <mxPoint x="581" y="155" as="sourcePoint" />
          </mxGeometry>
        </mxCell>
        <mxCell id="tz2Queb-3kquGu2dCrOk-36" value="link" style="curved=1;startArrow=none;endArrow=block;exitX=0.65;exitY=1;entryX=0;entryY=0.49;rounded=0;strokeColor=default;align=center;verticalAlign=middle;fontFamily=Helvetica;fontSize=13;fontColor=default;labelBackgroundColor=default;" parent="1" source="tz2Queb-3kquGu2dCrOk-4" target="tz2Queb-3kquGu2dCrOk-16" edge="1">
          <mxGeometry x="0.0012" y="4" relative="1" as="geometry">
            <Array as="points">
              <mxPoint x="1177" y="830" />
            </Array>
            <mxPoint as="offset" />
          </mxGeometry>
        </mxCell>
        <mxCell id="tz2Queb-3kquGu2dCrOk-37" value="write" style="curved=1;startArrow=none;endArrow=block;exitX=1;exitY=0.49;entryX=0;entryY=0.49;rounded=0;fontSize=13;" parent="1" source="tz2Queb-3kquGu2dCrOk-16" target="tz2Queb-3kquGu2dCrOk-5" edge="1">
          <mxGeometry relative="1" as="geometry">
            <Array as="points" />
          </mxGeometry>
        </mxCell>
        <mxCell id="tz2Queb-3kquGu2dCrOk-38" value="render" style="curved=1;startArrow=none;endArrow=block;exitX=1;exitY=0.83;entryX=1;entryY=0.5;rounded=0;entryDx=0;entryDy=0;strokeColor=default;align=center;verticalAlign=middle;fontFamily=Helvetica;fontSize=13;fontColor=default;labelBackgroundColor=default;" parent="1" source="tz2Queb-3kquGu2dCrOk-18" target="tz2Queb-3kquGu2dCrOk-9" edge="1">
          <mxGeometry x="-0.1071" y="-7" relative="1" as="geometry">
            <Array as="points">
              <mxPoint x="701" y="259" />
              <mxPoint x="720" y="380" />
            </Array>
            <mxPoint as="offset" />
          </mxGeometry>
        </mxCell>
        <mxCell id="uv80TspqGvo0qjS1nxk1-1" value="Zenoh Space" style="shape=cylinder3;boundedLbl=1;backgroundOutline=1;size=10;strokeWidth=2;whiteSpace=wrap;fillColor=#fff2cc;strokeColor=#d6b656;fontSize=14;" vertex="1" parent="1">
          <mxGeometry x="780" y="2.5" width="105" height="73" as="geometry" />
        </mxCell>
      </root>
    </mxGraphModel>
  </diagram>
</mxfile>
